<svg width="30" height="30" viewBox="0 0 30 30" fill="none" xmlns="http://www.w3.org/2000/svg">
<path d="M19.5 30C19.8978 30 20.2794 29.842 20.5607 29.5607C20.842 29.2794 21 28.8978 21 28.5C21 28.1022 20.842 27.7206 20.5607 27.4393C20.2794 27.158 19.8978 27 19.5 27H7C5.93913 27 4.92172 26.5786 4.17157 25.8284C3.42143 25.0783 3 24.0609 3 23V7C3 5.93913 3.42143 4.92172 4.17157 4.17157C4.92172 3.42143 5.93913 3 7 3H19.5C19.8978 3 20.2794 2.84196 20.5607 2.56066C20.842 2.27936 21 1.89782 21 1.5C21 1.10218 20.842 0.720644 20.5607 0.43934C20.2794 0.158035 19.8978 0 19.5 0H7C5.14348 0 3.36301 0.737498 2.05025 2.05025C0.737498 3.36301 0 5.14348 0 7V23C0 24.8565 0.737498 26.637 2.05025 27.9497C3.36301 29.2625 5.14348 30 7 30H19.5ZM21.482 7.398C21.6267 7.26428 21.7963 7.16039 21.9812 7.09224C22.1661 7.02409 22.3625 6.99303 22.5594 7.00083C22.7563 7.00863 22.9497 7.05514 23.1286 7.1377C23.3075 7.22026 23.4683 7.33726 23.602 7.482L29.602 13.982C29.8581 14.2591 30.0003 14.6226 30.0003 15C30.0003 15.3774 29.8581 15.7409 29.602 16.018L23.602 22.518C23.3317 22.81 22.9566 22.9827 22.559 22.9981C22.1614 23.0134 21.774 22.8703 21.482 22.6C21.19 22.3297 21.0173 21.9546 21.0019 21.557C20.9866 21.1594 21.1297 20.772 21.4 20.48L25.076 16.498H9.5C9.10218 16.498 8.72064 16.34 8.43934 16.0587C8.15804 15.7774 8 15.3958 8 14.998C8 14.6002 8.15804 14.2186 8.43934 13.9373C8.72064 13.656 9.10218 13.498 9.5 13.498H25.074L21.398 9.516C21.2643 9.3713 21.1604 9.20167 21.0922 9.01681C21.0241 8.83195 20.993 8.63547 21.0008 8.4386C21.0086 8.24173 21.0551 8.04833 21.1377 7.86943C21.2203 7.69054 21.3373 7.52967 21.482 7.396V7.398Z" fill="#636363"/>
</svg>
