<svg width="20" height="20" viewBox="0 0 20 20" fill="none" xmlns="http://www.w3.org/2000/svg">
<path d="M0.254181 19.7457C-0.257028 19.2345 0.0791541 18.5766 0.590363 18.0654L18.0655 0.590272C18.5768 0.0790649 19.2346 -0.256992 19.7458 0.254215C20.257 0.765423 19.921 1.42323 19.4097 1.93444L1.93444 19.4097C1.42324 19.9209 0.765391 20.2569 0.254181 19.7457Z" fill="#9393A8"/>
<path d="M19.7457 19.7458C19.2345 20.257 18.5766 19.9209 18.0654 19.4097L0.590278 1.93456C0.0790688 1.42335 -0.256993 0.765458 0.254216 0.254251C0.765425 -0.256957 1.42332 0.0791039 1.93453 0.590311L19.4097 18.0654C19.9209 18.5766 20.2569 19.2346 19.7457 19.7458Z" fill="#9393A8"/>
</svg>
